# xmcd CD database file
#
# Track frame offsets:
#	150
#	13765
#	42052
#	67120
#
# Disc length: 1297 seconds
#
# Revision: 0
# Processed by: cddbd v1.5PL3 Copyright (c) Steve Scherf et al.
# Submitted via: CDex 1.51
#
DISCID=2e050f04
DTITLE=Various Artist - Sun Sun Sampler
DYEAR=1900
DGENRE=Jazz
TTITLE0=Ski Featuring Valerie Etienne - Tres-Cun-Deo La
TTITLE1=Bob Sinclair Featuring Salome De Bahia - Es So Quero Um Xodo
TTITLE2=De Lata - Beija Flor
TTITLE3=Ski - Montreux A Marseille
EXTD=
EXTT0=
EXTT1=
EXTT2=
EXTT3=
PLAYORDER=
